<?xml version="1.0" encoding="UTF-8" standalone="no"?>
<svg 
  version="1.1" 
  xmlns="http://www.w3.org/2000/svg" 
  xmlns:xlink="http://www.w3.org/1999/xlink" 
  xmlns:svg="http://www.w3.org/2000/svg"
  xmlns:rdf="http://www.w3.org/1999/02/22-rdf-syntax-ns#"
  xmlns:cc="http://creativecommons.org/ns#"
  xmlns:dc="http://purl.org/dc/elements/1.1/"
  viewBox="0 0 1024 1024"
  width="1024"
  height="1024"
>
<style>svg {background-color: white; }</style>"
<metadata id="metadata1">
Created by https://svgstud.io and licensed under CC-BY-SA 4.0 license. Please attribute https://svgstud.io
</metadata>
<metadata id="prompt">
latino woman in hijab
</metadata>
<metadata id="version">
7
</metadata>
<metadata id="metadata2">
<rdf:RDF>
<cc:Work
    rdf:about="">
    <cc:license
    rdf:resource="http://creativecommons.org/licenses/by-sa/4.0/" />
    <dc:creator>
        <cc:Agent>
            <dc:title>https://svgstud.io</dc:title>
        </cc:Agent>
    </dc:creator>
</cc:Work>
<cc:License
    rdf:about="http://creativecommons.org/licenses/by-sa/4.0/">
    <cc:permits
    rdf:resource="http://creativecommons.org/ns#Reproduction" />
    <cc:permits
    rdf:resource="http://creativecommons.org/ns#Distribution" />
    <cc:requires
    rdf:resource="http://creativecommons.org/ns#Notice" />
    <cc:requires
    rdf:resource="http://creativecommons.org/ns#Attribution" />
    <cc:permits
    rdf:resource="http://creativecommons.org/ns#DerivativeWorks" />
    <cc:requires
    rdf:resource="http://creativecommons.org/ns#ShareAlike" />
</cc:License>
</rdf:RDF>
</metadata>
<metadata id="uid">
4e2d6fe4211ad07a857b35a41bd89a82f460a6ae30bfea78ef7a2c5de33295ee
</metadata>
<path stroke="none" fill="black" fill-rule="evenodd" d="M630.00,999.32C622.02,999.59 610.10,999.43 603.50,998.97C596.90,998.50 585.20,997.23 577.50,996.13C569.80,995.03 555.40,992.33 545.50,990.13C535.60,987.93 519.01,984.06 508.63,981.52C498.25,978.99 483.79,974.95 476.51,972.56C469.22,970.16 457.69,965.50 450.88,962.20C444.07,958.90 433.10,952.61 426.50,948.21C419.90,943.81 409.73,936.23 403.91,931.36C398.09,926.49 383.46,913.42 371.41,902.31C359.36,891.21 343.37,877.03 335.88,870.81C328.39,864.59 316.90,855.59 310.35,850.82C303.80,846.04 292.38,838.27 284.97,833.55C277.56,828.82 265.20,821.87 257.50,818.10C249.80,814.32 238.32,809.19 232.00,806.71C225.68,804.22 216.22,801.04 211.00,799.64C205.78,798.23 197.22,796.33 192.00,795.42C186.78,794.50 176.88,793.69 170.00,793.62C159.65,793.52 156.29,793.88 150.46,795.72C146.59,796.93 140.74,799.74 137.46,801.95C134.18,804.15 129.37,807.51 126.77,809.39C122.71,812.33 120.92,812.93 114.27,813.54C110.00,813.94 105.38,814.68 104.00,815.19C102.62,815.71 100.21,817.34 98.63,818.81C97.05,820.29 94.10,824.88 92.09,829.01C90.07,833.15 87.13,840.91 85.54,846.26C83.96,851.62 82.37,856.00 82.01,856.00C81.65,856.00 79.27,852.04 76.72,847.21C74.17,842.37 71.39,835.75 70.54,832.50C69.69,829.24 69.01,822.51 69.01,817.54C69.02,812.57 69.62,806.25 70.36,803.50C71.09,800.75 72.94,795.95 74.46,792.84C75.99,789.72 79.02,785.00 81.20,782.34C83.37,779.68 89.06,773.49 93.83,768.60C98.60,763.70 105.42,757.35 109.00,754.49C112.58,751.63 119.81,745.06 125.08,739.90C130.34,734.73 142.75,720.38 152.65,708.00C162.55,695.62 175.05,679.49 180.42,672.15C185.80,664.81 191.10,656.77 192.20,654.29C193.73,650.83 194.04,648.69 193.52,645.14C193.14,642.59 190.68,635.10 188.04,628.50C185.41,621.90 182.09,612.45 180.67,607.50C179.25,602.55 176.98,593.10 175.61,586.50C174.25,579.90 172.45,569.77 171.62,564.00C170.79,558.23 169.65,546.52 169.09,538.00C168.54,529.48 167.55,507.12 166.89,488.31C166.21,468.52 165.96,439.90 166.31,420.31C166.64,401.72 167.58,379.88 168.40,371.78C169.22,363.68 170.64,352.66 171.54,347.28C172.44,341.90 174.72,330.77 176.59,322.55C178.47,314.32 182.06,300.15 184.58,291.05C187.10,281.95 190.86,269.06 192.94,262.42C195.03,255.77 200.12,241.37 204.27,230.42C208.41,219.46 214.41,203.07 217.59,194.00C220.78,184.93 226.47,171.43 230.24,164.00C234.01,156.57 240.87,144.88 245.47,138.00C250.07,131.12 256.90,121.67 260.63,117.00C264.37,112.33 272.85,103.05 279.46,96.40C286.08,89.74 295.80,80.90 301.05,76.76C306.30,72.62 315.53,65.98 321.55,62.00C327.57,58.02 338.80,51.70 346.50,47.94C354.20,44.19 365.90,39.27 372.50,37.01C379.10,34.75 389.68,31.60 396.00,30.01C402.32,28.42 411.77,26.33 417.00,25.36C424.32,24.01 431.78,23.60 449.50,23.61C466.17,23.62 475.33,24.08 482.78,25.29C488.43,26.20 499.00,28.34 506.28,30.04C513.55,31.74 524.79,34.88 531.26,37.03C537.73,39.18 548.08,43.35 554.26,46.29C560.44,49.24 569.62,54.20 574.65,57.32C579.68,60.44 587.87,66.14 592.84,69.98C597.81,73.82 607.43,82.49 614.21,89.23C621.00,95.98 632.75,108.24 640.33,116.47C649.06,125.95 657.18,136.03 662.48,143.97C667.09,150.86 673.60,161.60 676.94,167.84C680.28,174.07 685.44,184.87 688.40,191.84C691.36,198.80 694.99,207.88 696.46,212.00C697.94,216.12 701.55,226.93 704.49,236.00C707.43,245.07 711.43,259.02 713.37,267.00C715.32,274.98 718.04,288.02 719.42,296.00C720.81,303.98 723.50,321.30 725.41,334.50C727.32,347.70 729.41,364.43 730.05,371.68C730.69,378.93 731.01,385.46 730.77,386.18C730.53,386.91 727.50,375.80 724.03,361.50C720.57,347.20 714.68,326.15 710.94,314.72C707.21,303.29 702.57,287.54 700.64,279.72C698.71,271.90 695.04,255.82 692.48,244.00C689.93,232.18 685.79,216.20 683.28,208.50C680.78,200.80 676.59,189.10 673.97,182.50C671.35,175.90 666.03,163.93 662.16,155.89C657.61,146.45 653.04,138.67 649.24,133.89C646.00,129.83 640.24,123.76 636.43,120.40C632.62,117.05 626.58,112.16 623.00,109.54C619.42,106.93 614.02,103.54 611.00,102.02C607.98,100.50 602.09,98.09 597.91,96.66C593.74,95.23 586.09,93.28 580.91,92.32C574.12,91.07 566.35,90.59 553.00,90.61C539.95,90.62 531.73,91.13 525.11,92.34C519.95,93.28 511.75,95.16 506.89,96.53C502.04,97.89 493.76,100.57 488.49,102.48C483.22,104.39 475.08,107.74 470.40,109.93C465.73,112.12 456.64,117.04 450.20,120.85C443.77,124.67 433.79,131.33 428.03,135.65C422.27,139.97 413.95,146.86 409.53,150.96C405.11,155.06 397.98,162.26 393.68,166.96C389.37,171.66 382.12,180.45 377.55,186.50C372.99,192.55 366.32,202.00 362.73,207.50C359.15,213.00 352.09,224.87 347.05,233.88C342.01,242.89 334.70,256.62 330.81,264.38C326.91,272.15 321.13,284.17 317.96,291.10C314.78,298.03 309.61,310.18 306.46,318.10C303.32,326.02 298.53,339.02 295.82,347.00C293.11,354.98 289.35,366.80 287.46,373.29C285.58,379.77 281.13,396.65 277.59,410.79C274.05,424.93 270.67,440.87 270.08,446.21C269.49,451.55 269.00,461.46 269.00,468.24C269.00,475.01 269.46,484.37 270.03,489.03C270.59,493.69 272.19,503.80 273.59,511.50C274.98,519.20 277.27,530.45 278.68,536.50C280.09,542.55 282.83,550.99 284.76,555.25C286.70,559.51 288.67,563.00 289.14,563.00C289.61,563.00 290.00,562.89 290.00,562.75C290.00,562.61 289.30,558.90 288.44,554.50C287.58,550.10 286.49,541.43 286.01,535.24C285.48,528.49 285.51,518.95 286.08,511.41C286.61,504.49 288.18,492.90 289.59,485.66C290.99,478.42 294.34,463.73 297.03,453.00C299.72,442.27 304.38,424.95 307.38,414.50C310.39,404.05 315.17,388.37 318.00,379.66C320.83,370.95 325.54,358.12 328.48,351.16C331.41,344.20 339.42,326.57 346.27,312.00C353.12,297.43 363.80,275.38 369.99,263.00C376.18,250.62 384.39,234.95 388.23,228.17C392.06,221.40 399.39,209.60 404.52,201.97C409.64,194.34 417.34,183.69 421.63,178.30C425.93,172.91 433.05,164.72 437.47,160.11C441.89,155.49 449.77,148.10 455.00,143.69C460.23,139.27 468.35,133.13 473.05,130.03C477.76,126.94 485.41,122.56 490.05,120.31C494.70,118.05 502.71,114.82 507.84,113.13C512.98,111.44 521.76,109.03 527.34,107.78C536.08,105.82 540.22,105.51 557.00,105.55C572.83,105.60 578.29,106.00 586.00,107.68C591.23,108.81 600.29,111.62 606.15,113.91C612.01,116.20 619.66,119.92 623.15,122.17C626.64,124.42 632.51,129.35 636.18,133.13C641.58,138.69 644.02,142.36 648.88,152.26C652.19,158.99 656.93,170.17 659.41,177.11C661.88,184.04 667.57,201.37 672.04,215.61C676.84,230.86 682.80,252.94 686.57,269.34C690.08,284.66 694.97,304.68 697.44,313.84C699.91,323.00 703.03,333.65 704.38,337.50C705.73,341.35 711.19,356.88 716.51,372.00C721.83,387.12 727.73,404.22 729.62,409.98C731.50,415.75 734.17,426.68 735.55,434.28C736.93,441.88 739.12,450.89 740.42,454.30C741.72,457.71 745.96,467.02 749.85,475.00C753.74,482.98 762.08,499.29 768.39,511.26C774.70,523.23 782.09,537.86 784.81,543.76C787.54,549.67 791.13,557.65 792.79,561.50C794.44,565.35 797.38,572.33 799.31,577.00C801.23,581.67 807.18,594.95 812.52,606.50C817.86,618.05 823.71,631.33 825.53,636.00C827.34,640.67 829.38,648.30 830.06,652.95C830.82,658.19 831.07,666.16 830.72,673.95C830.41,680.85 830.45,687.25 830.82,688.16C831.20,689.07 836.94,694.69 843.58,700.66C850.22,706.62 859.00,714.04 863.08,717.15C867.16,720.26 876.35,726.49 883.50,731.00C890.65,735.51 899.21,741.13 902.53,743.49C905.84,745.85 911.46,750.88 915.03,754.66C918.59,758.44 924.32,765.67 927.76,770.71C931.21,775.75 938.97,788.55 945.01,799.16C951.17,809.96 956.00,819.57 956.00,821.02C956.00,822.43 953.25,828.06 949.88,833.52C946.52,838.98 941.71,846.16 939.20,849.48C936.69,852.79 933.09,857.30 931.20,859.50C929.32,861.70 919.39,872.50 909.14,883.50C898.89,894.50 884.19,909.81 876.48,917.52C868.77,925.22 855.94,937.32 847.98,944.39C840.01,951.47 828.79,960.77 823.03,965.07C817.27,969.36 808.72,974.89 804.03,977.34C799.34,979.79 791.00,983.47 785.50,985.51C780.00,987.55 769.42,990.47 762.00,992.00C754.58,993.53 741.75,995.56 733.50,996.51C721.00,997.96 713.58,998.14 689.00,997.61C672.47,997.25 656.20,997.38 652.00,997.90C647.88,998.41 637.98,999.05 630.00,999.32zM643.04,986.91C646.09,986.96 651.26,986.32 654.54,985.48C657.82,984.65 665.23,981.69 671.00,978.91C676.77,976.13 685.77,971.00 691.00,967.52C696.23,964.04 704.77,957.60 710.00,953.23C715.23,948.85 724.56,940.03 730.75,933.64C736.93,927.25 744.75,918.31 748.11,913.77C751.47,909.24 756.91,901.02 760.19,895.51C763.47,890.01 769.99,877.62 774.68,868.00C779.38,858.38 785.59,844.65 788.49,837.50C791.39,830.35 795.17,820.31 796.88,815.20C798.60,810.08 801.32,800.63 802.95,794.20C804.57,787.76 807.23,776.42 808.87,769.00C810.50,761.58 812.76,749.88 813.89,743.00C815.02,736.12 816.63,724.65 817.46,717.50C818.30,710.35 818.99,696.31 818.99,686.30C819.00,676.29 818.50,665.71 817.89,662.80C817.28,659.88 816.41,657.10 815.95,656.61C815.48,656.10 814.82,656.98 814.45,658.61C814.08,660.20 813.12,663.86 812.32,666.75C811.46,669.82 810.29,672.00 809.49,672.00C808.73,672.00 807.44,671.03 806.61,669.85C805.29,667.96 804.45,667.78 799.61,668.28C795.98,668.65 793.80,668.45 793.18,667.67C792.67,667.03 791.95,664.02 791.58,660.99C791.22,657.96 790.57,654.92 790.14,654.22C789.65,653.43 788.36,655.85 786.67,660.73C785.19,665.00 782.40,675.69 780.47,684.48C778.54,693.26 775.39,706.54 773.47,713.98C771.55,721.41 768.47,730.65 766.64,734.50C764.80,738.35 760.60,745.10 757.31,749.50C754.02,753.90 747.77,761.55 743.41,766.50C739.05,771.45 733.40,777.98 730.84,781.00C728.29,784.02 721.37,793.70 715.47,802.50C709.57,811.30 701.67,822.13 697.92,826.56C694.17,831.00 685.78,839.79 679.28,846.10C672.79,852.41 662.97,860.77 657.48,864.68C651.99,868.58 643.00,874.02 637.50,876.76C632.00,879.49 623.99,882.94 619.70,884.41C615.42,885.88 608.36,887.61 604.03,888.24C598.09,889.10 593.73,889.10 586.32,888.23C580.92,887.60 572.45,885.91 567.50,884.48C562.55,883.05 555.23,880.31 551.23,878.39C547.23,876.48 539.58,871.59 534.23,867.54C528.88,863.49 519.24,854.85 512.82,848.34C506.39,841.83 496.57,831.10 490.99,824.50C485.41,817.90 480.39,811.67 479.84,810.65C478.92,808.97 479.13,808.86 482.16,809.48C484.00,809.85 489.55,812.13 494.50,814.55C499.45,816.97 507.32,821.30 512.00,824.17C517.82,827.75 524.92,833.69 534.50,843.01C545.65,853.84 549.86,857.26 555.13,859.75C558.77,861.47 564.47,863.59 567.79,864.45C571.12,865.31 577.13,866.28 581.17,866.60C586.06,867.00 590.90,866.68 595.71,865.66C599.67,864.82 606.19,862.48 610.21,860.47C614.22,858.46 622.00,853.88 627.50,850.30C633.00,846.72 638.57,842.82 639.89,841.64C641.20,840.46 643.56,837.74 645.14,835.60C646.71,833.45 648.00,831.42 648.00,831.07C648.00,830.73 639.11,830.45 628.25,830.45C614.25,830.45 605.15,829.93 597.00,828.67C590.67,827.69 581.45,825.51 576.50,823.83C571.55,822.16 559.17,816.81 549.00,811.95C534.12,804.84 525.51,801.54 504.99,795.07C490.95,790.65 475.88,785.71 471.49,784.10C467.09,782.49 461.31,780.23 458.62,779.07C455.94,777.91 444.69,770.73 433.62,763.11C422.56,755.50 409.45,746.78 404.50,743.74C399.55,740.70 389.20,734.74 381.50,730.49C373.80,726.24 356.54,716.96 343.16,709.87C329.77,702.78 315.59,694.90 311.66,692.36C307.72,689.82 300.64,684.68 295.93,680.93C291.21,677.18 282.89,669.47 277.43,663.80C271.97,658.13 264.32,649.21 260.44,643.99C256.55,638.77 251.55,631.57 249.32,627.99C247.09,624.40 243.90,618.77 242.24,615.47C240.57,612.17 237.16,604.68 234.66,598.81C232.15,592.95 227.37,580.32 224.03,570.74C220.69,561.16 216.16,547.07 213.96,539.41C211.77,531.76 208.42,517.85 206.52,508.50C204.61,499.15 202.17,482.95 201.08,472.50C199.99,462.05 198.33,444.27 197.38,433.00C196.11,417.81 195.64,400.84 195.58,367.50C195.51,330.47 195.81,319.84 197.26,307.50C198.23,299.25 199.69,285.30 200.51,276.50C201.33,267.70 201.99,258.93 201.98,257.00C201.97,254.36 201.73,253.87 200.99,255.00C200.45,255.82 199.10,258.89 198.00,261.81C196.89,264.73 193.95,278.68 191.46,292.81C188.97,306.94 185.78,323.00 184.37,328.50C182.95,334.00 180.73,343.00 179.43,348.50C178.13,354.00 176.38,363.10 175.54,368.72C174.70,374.34 173.52,387.73 172.90,398.48C172.01,413.99 172.11,429.59 173.39,474.26C174.28,505.19 175.26,534.55 175.57,539.50C175.89,544.45 177.49,557.22 179.14,567.88C180.79,578.54 183.26,591.14 184.62,595.88C185.99,600.62 189.30,609.67 191.99,616.00C194.68,622.33 198.22,631.19 199.85,635.70C201.48,640.20 204.45,646.34 206.43,649.33C208.42,652.32 212.31,657.07 215.08,659.89C217.85,662.70 220.59,665.00 221.18,665.00C221.83,665.00 222.01,663.91 221.65,662.25C221.32,660.74 220.42,656.91 219.65,653.75C218.89,650.59 218.47,648.00 218.73,648.00C218.99,648.00 227.37,656.24 237.35,666.30C254.52,683.62 256.58,685.33 275.50,698.13C286.50,705.56 301.57,715.27 309.00,719.70C316.43,724.13 326.24,729.85 330.81,732.43C335.38,735.00 351.35,744.98 366.31,754.61C381.26,764.24 395.52,774.12 397.99,776.56C402.02,780.55 402.24,781.00 400.18,781.00C398.93,781.00 390.74,778.31 381.99,775.03C373.25,771.74 362.00,767.90 356.99,766.50C351.98,765.09 344.43,762.67 340.19,761.12C335.96,759.57 330.25,757.10 327.50,755.61C322.59,752.97 322.56,752.93 326.00,753.39C327.93,753.65 331.41,754.16 333.75,754.52C336.75,754.98 338.00,754.82 338.00,753.98C338.00,753.32 335.19,750.07 331.75,746.76C328.31,743.44 322.35,738.60 318.50,736.01C314.65,733.41 309.25,730.14 306.50,728.75C303.75,727.36 295.88,723.74 289.00,720.70C282.12,717.66 273.12,713.84 269.00,712.22C264.88,710.59 258.45,708.50 254.73,707.58C251.00,706.65 243.12,705.25 237.23,704.47C231.33,703.68 220.65,702.98 213.50,702.90C206.35,702.83 199.15,702.46 197.50,702.10C194.50,701.44 194.50,701.44 197.00,699.77C198.38,698.85 203.78,696.17 209.00,693.80C218.50,689.50 218.50,689.50 232.70,689.53C240.51,689.54 246.36,689.19 245.70,688.74C245.04,688.29 242.03,686.64 239.00,685.08C235.97,683.52 230.12,681.25 226.00,680.03C220.19,678.32 215.01,677.71 203.00,677.34C189.37,676.92 187.08,677.08 184.02,678.68C181.31,680.09 178.04,684.40 169.37,698.00C159.85,712.92 156.98,716.60 149.90,723.00C145.33,727.12 138.64,733.33 135.04,736.79C128.50,743.09 128.50,743.09 137.59,742.43C145.01,741.89 148.65,742.18 157.33,744.01C163.18,745.24 168.76,746.83 169.73,747.55C171.36,748.74 171.31,748.88 169.00,749.34C167.62,749.62 161.06,750.33 154.42,750.91C147.78,751.50 137.94,753.10 132.55,754.46C127.16,755.83 119.10,758.72 114.63,760.89C109.69,763.29 102.77,767.95 97.00,772.78C91.78,777.15 85.59,782.80 83.25,785.34C80.91,787.88 79.00,790.87 79.00,791.98C79.00,793.09 79.24,794.00 79.53,794.00C79.83,794.00 82.29,792.88 85.00,791.50C87.71,790.13 90.46,789.00 91.09,789.00C91.73,789.00 90.47,790.94 88.28,793.31C86.09,795.69 83.15,799.62 81.74,802.06C80.33,804.50 78.72,808.19 78.17,810.25C77.61,812.31 77.46,813.98 77.83,813.95C78.20,813.93 80.73,810.95 83.45,807.33C86.18,803.72 91.35,798.41 94.95,795.54C98.55,792.67 104.20,788.68 107.50,786.68C110.80,784.68 116.13,782.15 119.35,781.04C122.56,779.94 128.51,778.36 132.56,777.52C137.22,776.56 145.38,776.00 154.85,776.00C165.85,776.00 172.37,776.53 179.64,778.01C185.06,779.11 194.45,781.65 200.50,783.64C206.55,785.64 217.29,789.93 224.38,793.17C231.46,796.42 242.05,801.05 247.91,803.46C253.77,805.88 263.05,808.98 268.53,810.34C274.02,811.71 285.93,814.44 295.00,816.41C304.07,818.39 316.03,821.29 321.57,822.88C327.11,824.46 335.72,827.39 340.71,829.38C345.70,831.38 353.54,835.09 358.14,837.63C362.74,840.17 384.27,854.07 406.00,868.53C427.73,882.98 453.97,900.84 464.32,908.22C474.67,915.60 489.89,925.38 498.15,929.95C506.42,934.53 520.22,941.52 528.84,945.49C537.45,949.47 551.70,956.31 560.50,960.70C569.30,965.10 581.67,970.76 588.00,973.29C594.33,975.82 604.45,979.25 610.50,980.92C616.55,982.58 625.10,984.59 629.50,985.38C633.90,986.17 639.99,986.86 643.04,986.91zM526.79,969.95C526.94,969.98 526.65,969.21 526.13,968.25C525.62,967.29 522.34,963.79 518.85,960.47C515.36,957.15 510.48,952.84 508.00,950.89C505.52,948.94 501.76,946.35 499.62,945.13C497.49,943.92 495.51,943.15 495.23,943.44C494.94,943.73 495.99,945.83 497.57,948.10C499.15,950.38 503.52,954.78 507.27,957.87C511.03,960.97 516.89,964.94 520.30,966.70C523.71,968.46 526.63,969.92 526.79,969.95zM886.52,899.35C887.26,899.07 888.73,896.97 889.80,894.67C890.88,892.38 893.65,884.65 895.98,877.50C898.30,870.35 901.52,858.51 903.14,851.18C904.75,843.85 906.72,833.28 907.52,827.68C908.31,822.08 908.97,810.94 908.98,802.92C908.99,794.90 908.72,788.06 908.39,787.72C908.05,787.38 906.01,789.33 903.86,792.05C901.71,794.77 899.31,797.00 898.52,797.00C897.67,797.00 896.89,795.68 896.60,793.75C896.33,791.96 895.20,783.75 894.08,775.50C892.96,767.25 890.75,755.87 889.15,750.20C887.37,743.87 885.37,738.96 883.95,737.45C882.68,736.09 877.03,732.74 871.39,729.99C865.75,727.25 860.75,725.00 860.28,725.00C859.81,725.00 859.43,729.84 859.44,735.75C859.44,742.61 858.99,747.32 858.18,748.77C857.01,750.85 856.73,750.92 854.80,749.57C853.65,748.76 851.49,745.36 850.00,742.00C848.52,738.65 846.81,735.41 846.22,734.82C845.45,734.05 844.99,734.70 844.61,737.12C844.31,738.98 843.86,754.00 843.61,770.50C843.33,788.69 842.47,806.60 841.45,816.00C840.34,826.06 839.77,839.05 839.82,853.00C839.86,864.83 840.28,876.08 840.76,878.00C841.63,881.50 841.63,881.50 843.27,876.50C844.17,873.75 845.93,866.19 847.17,859.69C849.38,848.17 849.46,847.97 850.63,851.36C851.29,853.26 852.15,857.37 852.54,860.48C852.93,863.59 852.67,872.63 851.96,880.57C851.25,888.51 850.96,895.29 851.31,895.65C851.66,896.00 852.63,895.73 853.45,895.04C854.27,894.36 856.13,891.26 857.59,888.15C860.23,882.50 860.23,882.50 862.90,888.40C865.32,893.73 865.99,894.42 869.85,895.56C872.74,896.42 875.15,896.53 877.30,895.91C879.05,895.41 881.28,895.00 882.24,895.00C883.28,895.00 884.00,895.75 884.00,896.83C884.00,897.84 884.27,898.94 884.60,899.26C884.93,899.59 885.79,899.63 886.52,899.35zM441.75,866.98C440.51,866.97 436.57,865.92 433.00,864.64C429.43,863.37 424.25,861.16 421.50,859.72C418.75,858.29 414.15,855.18 411.27,852.81C408.39,850.44 396.47,838.63 384.77,826.57C373.07,814.51 359.18,801.23 353.90,797.07C348.61,792.91 341.30,787.37 337.65,784.77C333.99,782.18 331.00,779.57 331.00,778.98C331.00,778.29 332.34,778.15 334.75,778.57C336.81,778.93 341.91,780.34 346.09,781.69C350.26,783.05 358.01,786.48 363.31,789.33C368.62,792.17 377.13,797.42 382.23,800.99C387.33,804.55 396.70,812.65 403.06,818.99C409.43,825.32 419.10,835.83 424.56,842.35C430.03,848.87 436.64,856.74 439.25,859.83C441.86,862.93 444.00,865.81 444.00,866.23C444.00,866.65 442.99,866.99 441.75,866.98zM580.18,802.90C589.77,802.96 597.34,802.48 601.99,801.50C605.91,800.68 616.71,796.85 626.00,793.00C635.28,789.15 643.15,786.00 643.49,786.00C643.83,786.00 650.84,783.30 659.06,780.01C667.28,776.72 677.69,772.17 682.19,769.90C686.69,767.64 693.91,763.59 698.24,760.91C702.57,758.23 709.35,753.59 713.31,750.61C717.28,747.63 724.68,740.98 729.77,735.84C734.85,730.70 741.67,722.95 744.92,718.61C748.16,714.28 752.54,707.79 754.64,704.20C756.74,700.61 760.56,693.09 763.14,687.50C765.71,681.91 771.03,668.42 774.96,657.53C778.89,646.64 783.19,633.70 784.51,628.77C785.83,623.83 787.44,615.23 788.09,609.65C788.75,604.01 789.02,594.84 788.70,589.00C788.38,583.23 787.44,575.35 786.61,571.50C785.78,567.65 784.18,561.84 783.05,558.58C781.92,555.33 779.55,550.38 777.78,547.58C776.02,544.79 772.84,540.18 770.73,537.34C768.62,534.50 766.20,531.91 765.37,531.59C764.05,531.08 763.94,531.93 764.56,537.74C765.23,543.96 765.16,544.37 763.62,543.10C762.70,542.34 761.74,541.92 761.49,542.18C761.24,542.43 760.17,546.88 759.11,552.07C758.06,557.26 755.99,570.50 754.52,581.50C753.05,592.50 750.74,607.77 749.37,615.42C748.01,623.08 746.02,631.83 744.96,634.86C743.89,637.89 741.56,642.80 739.76,645.78C737.97,648.75 733.58,654.23 730.00,657.94C726.42,661.66 721.58,665.96 719.23,667.49C716.88,669.03 714.68,670.01 714.33,669.67C713.99,669.32 715.88,665.32 718.53,660.77C721.18,656.22 726.18,646.98 729.63,640.24C733.09,633.49 737.24,623.82 738.87,618.74C740.49,613.66 742.15,607.25 742.56,604.50C743.29,599.50 743.29,599.50 735.99,607.31C731.97,611.61 726.17,617.06 723.09,619.42C720.02,621.78 715.61,624.68 713.29,625.86C710.97,627.04 708.39,628.00 707.54,628.00C706.69,628.00 706.00,627.56 706.00,627.03C706.00,626.50 705.26,626.35 704.36,626.69C702.96,627.23 702.81,626.80 703.36,623.89C703.72,622.00 706.88,613.24 710.40,604.41C713.91,595.59 718.20,583.97 719.92,578.60C721.64,573.22 723.33,566.09 723.68,562.75C724.11,558.69 723.98,556.90 723.29,557.32C722.72,557.67 717.38,565.51 711.42,574.73C705.47,583.95 697.12,598.02 692.88,606.00C688.64,613.98 683.73,622.91 681.96,625.86C680.18,628.81 675.28,635.56 671.05,640.86C666.82,646.16 660.69,652.94 657.43,655.91C654.17,658.89 649.67,662.13 647.44,663.13C645.20,664.12 640.72,665.62 637.48,666.46C634.23,667.31 629.65,668.00 627.29,668.00C624.93,668.00 623.00,667.63 623.00,667.17C623.00,666.72 626.00,663.91 629.67,660.94C633.34,657.96 639.53,651.88 643.42,647.42C647.32,642.97 653.35,635.31 656.84,630.41C660.33,625.51 664.76,618.66 666.70,615.20C668.64,611.73 669.98,608.65 669.68,608.35C669.38,608.05 664.66,609.86 659.19,612.37C653.72,614.87 645.75,618.31 641.48,620.01C637.22,621.70 629.91,624.19 625.25,625.54C620.59,626.89 615.70,628.00 614.39,628.00C613.07,628.00 612.00,627.47 612.00,626.82C612.00,626.17 614.55,621.42 617.66,616.28C621.44,610.04 622.99,606.59 622.32,605.92C621.65,605.25 619.69,605.28 616.41,606.01C613.71,606.61 608.35,608.95 604.50,611.22C600.65,613.49 592.33,618.81 586.00,623.03C579.67,627.26 571.05,632.61 566.83,634.91C562.61,637.21 556.76,639.94 553.84,640.97C550.91,642.00 548.28,642.61 548.00,642.32C547.73,642.03 550.88,638.66 555.00,634.83C562.50,627.86 562.50,627.86 558.50,628.42C556.30,628.73 546.17,629.26 536.00,629.61C525.05,629.98 511.79,629.78 503.50,629.11C495.80,628.49 481.85,626.86 472.50,625.49C463.15,624.13 451.90,623.04 447.50,623.07C443.10,623.11 438.67,623.47 437.66,623.87C436.11,624.47 436.67,625.19 441.16,628.30C444.10,630.33 448.81,633.60 451.63,635.56C456.10,638.67 458.87,639.56 473.24,642.52C482.31,644.39 490.91,646.46 492.36,647.12C493.81,647.78 495.00,648.68 495.00,649.12C495.00,649.55 493.54,650.15 491.75,650.46C489.96,650.76 484.69,651.45 480.03,652.00C475.37,652.55 467.23,653.00 461.94,653.00C455.57,653.00 449.66,652.32 444.45,650.99C440.12,649.88 431.61,646.58 425.54,643.66C419.47,640.73 409.32,634.84 403.00,630.55C396.68,626.26 386.10,618.43 379.50,613.15C372.90,607.88 360.98,597.00 353.00,589.00C345.02,580.99 333.90,568.94 328.28,562.22C322.66,555.49 315.75,546.58 312.94,542.41C310.13,538.24 305.33,530.03 302.29,524.16C299.24,518.30 296.29,512.93 295.73,512.23C295.17,511.53 294.48,511.19 294.19,511.48C293.90,511.77 293.49,513.65 293.29,515.66C293.08,517.67 293.84,524.19 294.98,530.14C296.12,536.09 297.99,544.01 299.14,547.73C300.29,551.45 302.59,557.20 304.25,560.50C305.91,563.80 309.76,570.25 312.81,574.83C315.85,579.40 321.58,586.83 325.53,591.33C329.48,595.82 337.62,604.23 343.61,610.01C349.60,615.79 357.43,623.01 361.00,626.06C364.57,629.12 372.00,634.80 377.50,638.70C383.00,642.60 396.05,651.09 406.50,657.58C416.95,664.06 432.70,673.33 441.50,678.18C450.30,683.02 461.77,688.78 467.00,690.96C472.23,693.15 480.76,696.55 485.96,698.52C491.16,700.48 500.71,703.63 507.18,705.51C513.66,707.39 525.38,710.06 533.23,711.45C541.08,712.83 557.85,715.13 570.50,716.57C589.30,718.70 596.51,719.09 610.00,718.71C624.07,718.31 627.80,717.85 635.35,715.59C640.22,714.14 649.09,710.94 655.06,708.48C661.03,706.01 666.64,704.00 667.53,704.00C668.73,704.00 668.96,704.57 668.45,706.25C668.07,707.49 667.03,709.40 666.14,710.50C665.25,711.60 662.51,714.72 660.05,717.43C657.59,720.14 656.09,722.53 656.71,722.74C657.33,722.94 661.36,721.90 665.67,720.43C669.98,718.95 676.65,716.17 680.50,714.25C684.35,712.33 690.51,708.54 694.19,705.83C697.88,703.11 703.66,697.77 707.04,693.95C710.43,690.13 713.61,687.26 714.10,687.56C714.60,687.87 715.00,690.92 715.00,694.34C715.00,699.37 714.35,701.88 711.60,707.53C709.74,711.36 705.67,717.52 702.57,721.20C699.46,724.89 693.23,730.70 688.71,734.11C684.20,737.52 677.12,741.93 673.00,743.91C665.50,747.50 665.49,747.50 652.00,747.44C641.60,747.39 634.13,746.64 619.50,744.15C609.05,742.38 593.75,739.82 585.50,738.46C577.25,737.10 565.10,735.34 558.50,734.56C551.90,733.78 542.67,732.87 538.00,732.53C533.33,732.19 525.23,731.45 520.00,730.88C514.77,730.31 505.23,728.74 498.78,727.39C492.34,726.04 481.32,723.12 474.28,720.89C467.25,718.66 453.40,712.99 443.50,708.30C433.60,703.61 420.10,696.79 413.50,693.14C406.90,689.50 395.43,682.43 388.00,677.43C380.57,672.43 368.65,664.38 361.50,659.53C354.35,654.69 344.23,647.31 339.00,643.15C333.77,638.98 323.61,629.70 316.41,622.54C309.20,615.37 300.18,605.67 296.35,601.00C292.51,596.33 282.61,583.50 274.33,572.50C266.05,561.50 257.58,549.84 255.50,546.58C253.43,543.33 249.13,535.23 245.96,528.58C242.78,521.94 238.82,511.77 237.16,506.00C235.49,500.23 232.96,489.50 231.54,482.16C230.13,474.82 228.55,465.82 228.03,462.16C227.52,458.50 226.63,449.13 226.05,441.34C225.47,433.56 225.36,426.19 225.81,424.98C226.53,423.03 226.93,423.45 229.23,428.64C230.66,431.86 233.19,439.00 234.84,444.50C236.49,450.00 239.28,459.68 241.03,466.00C242.79,472.32 246.22,482.90 248.66,489.50C251.10,496.10 255.07,505.55 257.47,510.50C259.87,515.45 263.72,522.42 266.02,526.00C268.32,529.58 270.65,532.95 271.18,533.50C271.83,534.15 271.92,532.77 271.46,529.50C271.07,526.75 269.45,518.03 267.86,510.13C266.27,502.23 264.08,488.75 262.99,480.18C261.78,470.61 260.31,463.24 259.20,461.05C258.20,459.10 255.23,453.68 252.60,449.00C249.97,444.32 246.31,436.00 244.47,430.50C242.63,425.00 239.77,413.98 238.12,406.00C236.48,398.02 233.99,383.40 232.60,373.50C231.22,363.60 229.62,348.98 229.05,341.00C228.48,333.02 228.02,311.88 228.01,294.00C228.01,276.12 228.45,255.43 228.99,248.00C229.54,240.57 230.70,228.65 231.57,221.50C232.45,214.35 234.26,202.79 235.61,195.81C236.95,188.83 240.31,175.40 243.07,165.95C245.83,156.51 247.93,148.30 247.73,147.70C247.54,147.11 244.87,150.42 241.81,155.06C238.75,159.70 234.40,167.64 232.15,172.69C229.90,177.75 226.72,186.36 225.10,191.84C223.47,197.31 220.78,208.25 219.13,216.14C217.47,224.04 214.29,240.40 212.07,252.50C209.85,264.60 207.36,279.00 206.55,284.51C205.74,290.02 204.61,301.27 204.05,309.51C203.49,317.75 203.02,330.57 203.02,338.00C203.01,345.43 203.46,360.05 204.02,370.50C204.58,380.95 205.72,397.15 206.55,406.50C207.39,415.85 208.94,429.35 210.00,436.50C211.05,443.65 213.98,460.52 216.51,474.00C219.04,487.48 222.46,503.90 224.12,510.50C225.78,517.10 228.93,528.52 231.13,535.89C233.32,543.25 236.21,552.17 237.54,555.70C238.87,559.23 240.30,562.65 240.73,563.31C241.17,563.99 241.71,562.37 242.00,559.50C242.50,554.50 242.50,554.50 247.42,562.00C250.13,566.12 256.65,575.91 261.92,583.75C267.19,591.58 273.01,600.13 274.85,602.75C278.04,607.27 278.10,607.52 276.10,607.82C274.94,608.00 274.00,608.49 274.00,608.92C274.00,609.34 276.47,613.63 279.49,618.45C282.52,623.26 286.28,628.84 287.85,630.85C289.42,632.86 291.21,635.45 291.82,636.62C292.43,637.78 292.68,638.99 292.37,639.29C292.07,639.60 289.98,639.20 287.73,638.40C285.47,637.61 281.35,635.20 278.56,633.05C275.78,630.90 270.88,626.59 267.69,623.47C264.49,620.35 261.60,618.07 261.26,618.41C260.92,618.75 261.96,621.83 263.57,625.26C265.77,629.94 269.13,634.14 277.00,642.07C282.77,647.88 292.68,657.14 299.00,662.63C305.32,668.13 314.10,675.34 318.50,678.65C322.90,681.97 329.20,686.49 332.50,688.71C335.80,690.92 342.65,694.82 347.73,697.37C352.81,699.91 361.58,703.84 367.23,706.09C372.88,708.34 386.50,713.55 397.50,717.66C408.50,721.77 423.35,727.99 430.50,731.48C437.65,734.97 447.53,740.37 452.46,743.47C457.39,746.58 467.59,753.81 475.13,759.53C482.67,765.25 493.72,773.15 499.67,777.07C505.63,781.00 514.49,786.22 519.36,788.67C524.23,791.12 532.82,794.67 538.45,796.55C544.09,798.44 552.47,800.61 557.10,801.39C561.72,802.16 572.11,802.84 580.18,802.90zM600.07,783.90C596.45,783.84 590.04,783.21 585.82,782.50C581.59,781.79 575.74,780.09 572.82,778.73C569.89,777.37 561.18,772.01 553.47,766.83C545.31,761.35 535.26,755.60 529.47,753.10C523.98,750.73 517.14,747.74 514.25,746.45C511.36,745.16 509.00,743.68 509.00,743.16C509.00,742.64 509.75,741.93 510.67,741.57C511.59,741.22 517.10,740.66 522.92,740.33C529.05,739.98 537.92,740.24 544.00,740.94C549.77,741.61 562.15,744.09 571.50,746.46C580.85,748.82 595.02,752.20 603.00,753.95C610.98,755.71 618.29,757.37 619.25,757.64C620.21,757.91 621.00,758.45 621.00,758.83C621.00,759.22 618.41,760.53 615.25,761.76C612.09,762.98 608.26,764.42 606.75,764.97C605.24,765.51 604.00,766.40 604.00,766.94C604.00,767.48 604.79,768.34 605.75,768.84C606.71,769.34 610.42,770.23 614.00,770.81C617.58,771.40 623.65,772.18 627.50,772.56C631.35,772.93 635.14,773.58 635.92,774.01C637.00,774.59 636.64,775.13 634.42,776.25C632.81,777.06 628.58,778.67 625.00,779.81C621.42,780.96 615.83,782.37 612.57,782.95C609.30,783.53 603.68,783.95 600.07,783.90zM258.29,749.89C255.10,749.82 248.74,749.18 244.14,748.47C239.54,747.75 230.54,746.01 224.14,744.60C217.74,743.18 207.55,741.04 201.50,739.82C193.49,738.21 187.24,737.64 178.50,737.72C171.90,737.77 161.78,738.49 156.00,739.32C150.22,740.14 145.10,740.43 144.62,739.97C144.12,739.50 146.48,737.35 149.97,735.10C153.40,732.88 158.75,730.10 161.85,728.93C164.96,727.75 171.32,726.11 176.00,725.28C182.17,724.18 188.34,723.91 198.50,724.31C206.20,724.60 215.76,725.55 219.75,726.41C223.74,727.27 231.10,729.55 236.10,731.48C241.09,733.41 248.93,737.44 253.52,740.43C258.10,743.42 262.35,746.79 262.96,747.93C264.03,749.92 263.84,750.00 258.29,749.89zM503.07,619.90C508.32,619.96 513.74,619.38 517.07,618.39C520.06,617.50 525.20,615.42 528.50,613.76C531.80,612.10 538.33,607.69 543.00,603.96C547.67,600.22 553.28,595.33 555.45,593.08C557.63,590.84 559.06,589.00 558.63,589.00C558.21,589.00 553.28,590.14 547.68,591.54C542.08,592.94 534.65,595.17 531.16,596.49C527.67,597.82 518.89,602.14 511.66,606.10C504.42,610.06 496.48,614.44 494.00,615.84C489.65,618.31 489.58,618.42 492.00,619.10C493.38,619.48 498.36,619.85 503.07,619.90zM445.00,609.52C459.88,609.27 465.03,608.80 471.35,607.12C475.66,605.97 482.64,603.14 486.85,600.83C491.06,598.52 497.43,594.72 501.00,592.40C504.57,590.07 508.85,587.02 510.50,585.62C513.50,583.07 513.50,583.07 509.60,583.04C507.46,583.02 501.50,584.35 496.36,585.99C491.22,587.64 483.08,589.68 478.26,590.53C472.93,591.47 460.31,592.27 446.00,592.60C433.07,592.88 418.00,593.76 412.50,594.54C407.00,595.31 398.56,596.25 393.75,596.61C388.94,596.98 385.00,597.63 385.00,598.06C385.00,598.50 388.49,600.20 392.75,601.84C397.01,603.47 405.00,605.75 410.50,606.88C416.00,608.02 421.85,609.15 423.50,609.39C425.15,609.63 434.82,609.69 445.00,609.52zM455.50,584.65C469.44,584.40 469.54,584.38 480.24,580.06C486.15,577.68 491.73,575.19 492.63,574.53C493.97,573.55 492.02,573.19 482.39,572.64C475.86,572.27 465.78,571.27 460.00,570.41C454.23,569.56 443.88,567.80 437.00,566.49C430.12,565.19 412.47,561.61 397.76,558.54C378.49,554.52 366.63,551.44 355.31,547.51C346.67,544.51 339.40,542.26 339.16,542.51C338.91,542.76 340.46,544.60 342.60,546.61C344.75,548.61 349.99,552.87 354.26,556.07C358.52,559.26 367.52,564.56 374.26,567.83C380.99,571.10 390.10,574.90 394.50,576.26C398.90,577.63 404.75,579.27 407.50,579.91C410.26,580.56 419.03,581.94 427.00,582.99C436.73,584.27 446.11,584.81 455.50,584.65zM558.00,556.86C569.89,556.93 577.71,556.50 582.38,555.51C586.17,554.70 591.22,553.10 593.62,551.94C596.01,550.79 600.24,547.79 603.02,545.29C605.81,542.79 610.02,538.21 612.38,535.12C614.74,532.03 622.29,521.15 629.16,510.95C637.01,499.27 643.04,489.08 645.42,483.45C647.58,478.33 652.33,462.29 656.51,446.00C660.52,430.32 665.46,412.32 667.48,406.00C669.49,399.68 671.88,389.48 672.78,383.34C674.18,373.79 674.25,370.46 673.23,360.27C672.58,353.72 670.88,344.34 669.46,339.43C668.05,334.52 665.80,328.10 664.46,325.16C663.02,321.99 661.52,319.99 660.76,320.24C660.07,320.47 659.05,321.52 658.50,322.58C657.95,323.64 656.40,325.96 655.06,327.75C653.72,329.54 650.57,332.02 648.06,333.25C644.26,335.13 641.92,335.49 634.00,335.43C628.77,335.39 621.80,334.78 618.50,334.07C615.20,333.36 610.93,332.14 609.02,331.35C606.55,330.33 605.92,329.67 606.84,329.10C607.79,328.51 607.17,327.71 604.61,326.20C602.38,324.88 599.57,324.16 597.03,324.26C594.38,324.37 592.41,323.84 591.28,322.71C589.67,321.10 590.02,321.00 597.54,320.98C601.92,320.98 606.04,320.62 606.71,320.20C607.61,319.63 607.41,318.67 605.91,316.47C604.80,314.83 602.55,310.88 600.89,307.67C598.23,302.50 597.70,301.99 596.20,303.14C595.26,303.85 593.50,305.58 592.29,306.97C591.07,308.36 590.06,310.25 590.04,311.17C590.02,312.08 590.53,313.01 591.18,313.23C591.82,313.44 592.04,314.12 591.66,314.74C591.28,315.35 589.38,316.38 587.44,317.02C585.50,317.66 583.26,317.93 582.46,317.62C581.66,317.31 581.00,316.16 581.00,315.06C581.00,313.96 582.09,310.58 583.43,307.56C584.77,304.53 588.03,299.74 590.68,296.89C593.33,294.05 597.08,290.73 599.00,289.52C600.92,288.30 604.75,286.59 607.50,285.70C610.25,284.82 616.10,283.63 620.50,283.05C624.90,282.47 630.30,281.89 632.50,281.75C636.50,281.50 636.50,281.50 633.00,279.50C630.18,277.89 627.67,277.50 620.00,277.50C612.23,277.50 609.60,277.92 605.57,279.77C602.29,281.29 596.65,285.97 588.73,293.77C582.19,300.22 576.19,306.72 575.42,308.20C574.64,309.69 574.00,312.46 574.00,314.37C574.00,316.28 575.54,323.16 577.42,329.67C579.29,336.18 582.46,345.99 584.46,351.49C586.45,356.98 591.40,368.46 595.46,376.99C599.52,385.52 603.55,394.94 604.42,397.93C605.29,400.92 606.00,405.10 606.00,407.22C606.00,409.34 605.14,412.75 604.09,414.79C603.04,416.83 600.90,419.68 599.34,421.12C597.78,422.56 595.17,424.59 593.55,425.62C591.83,426.72 587.65,427.79 583.55,428.20C579.67,428.59 574.83,429.20 572.78,429.56C569.53,430.13 568.68,429.83 566.03,427.18C564.36,425.52 563.00,423.67 563.00,423.08C563.00,422.48 564.53,422.00 566.39,422.00C569.37,422.00 570.68,421.01 577.05,413.94C581.05,409.51 586.95,403.82 590.16,401.29C595.20,397.33 596.00,396.25 596.00,393.36C596.00,391.29 594.07,386.31 590.92,380.26C588.12,374.89 584.73,367.80 583.39,364.51C582.04,361.22 578.95,351.32 576.50,342.51C574.06,333.70 571.32,322.23 570.42,317.00C569.35,310.80 568.98,305.02 569.37,300.36C569.69,296.43 571.01,289.90 572.30,285.86C573.59,281.81 576.41,274.31 578.57,269.19C580.73,264.08 584.08,257.78 586.01,255.19C587.95,252.61 591.10,249.74 593.01,248.82C594.93,247.89 603.92,245.45 613.00,243.39C622.19,241.31 632.38,239.62 636.00,239.58C641.08,239.52 643.76,240.09 648.25,242.19C653.27,244.55 654.00,244.67 654.02,243.19C654.02,242.26 648.99,236.78 642.83,231.00C636.67,225.22 624.62,213.51 616.06,204.97C603.53,192.45 599.14,188.73 593.50,185.83C589.65,183.84 578.85,179.20 569.50,175.51C560.15,171.82 548.31,166.51 543.19,163.71C537.47,160.58 531.47,156.28 527.65,152.56C524.23,149.23 520.21,145.04 518.71,143.25C517.21,141.46 515.59,140.00 515.11,140.00C514.63,140.00 512.30,142.57 509.93,145.71C507.56,148.85 501.05,155.94 495.46,161.46C489.88,166.98 480.68,174.88 475.04,179.00C469.39,183.12 460.21,189.87 454.63,193.98C449.06,198.10 439.75,206.20 433.95,211.98C428.15,217.77 419.37,227.13 414.45,232.80C409.53,238.46 402.88,246.11 399.69,249.80C396.49,253.48 392.50,258.89 390.83,261.81C389.15,264.73 387.98,267.31 388.22,267.55C388.45,267.78 391.07,265.91 394.04,263.37C397.01,260.84 402.60,256.63 406.47,254.03C410.34,251.43 415.54,248.40 418.04,247.30C420.53,246.20 425.00,244.72 427.97,244.01C431.81,243.09 437.83,242.88 448.93,243.29C457.49,243.61 470.12,244.61 477.00,245.50C483.88,246.40 493.05,247.98 497.39,249.01C502.90,250.33 506.13,251.71 508.11,253.61C509.67,255.10 511.62,258.39 512.45,260.91C513.27,263.44 514.23,267.37 514.58,269.65C515.12,273.10 514.90,273.98 513.34,274.82C512.12,275.47 508.78,275.52 503.97,274.96C499.86,274.49 490.88,272.94 484.00,271.53C477.12,270.11 466.55,267.41 460.50,265.52C454.45,263.63 446.57,261.40 443.00,260.56C439.43,259.72 433.99,259.02 430.93,259.01C427.87,259.01 422.92,259.72 419.93,260.60C416.94,261.47 411.35,263.84 407.50,265.85C403.27,268.05 397.91,272.07 393.97,276.00C388.90,281.04 385.32,286.21 378.02,299.00C372.84,308.07 365.96,320.59 362.73,326.81C359.49,333.04 355.98,340.65 354.92,343.72C353.74,347.15 353.00,352.01 353.00,356.28C353.00,360.11 353.69,367.89 354.53,373.58C355.38,379.26 357.67,389.67 359.63,396.70C361.59,403.74 364.73,415.35 366.60,422.50C368.48,429.65 371.65,440.45 373.63,446.50C375.62,452.55 379.19,461.58 381.55,466.57C383.92,471.56 388.51,479.21 391.76,483.57C395.00,487.93 401.35,494.97 405.88,499.22C410.40,503.47 418.24,509.71 423.30,513.10C428.36,516.48 438.35,522.08 445.50,525.54C452.65,529.00 463.23,533.72 469.00,536.03C474.77,538.34 485.12,542.23 492.00,544.68C498.88,547.14 509.92,550.47 516.55,552.08C523.18,553.70 531.28,555.41 534.55,555.89C537.82,556.37 548.38,556.80 558.00,556.86zM432.50,554.84C446.41,554.99 446.48,554.98 443.50,553.18C441.85,552.19 437.57,550.22 434.00,548.80C430.43,547.38 422.55,545.23 416.50,544.02C410.45,542.80 396.61,539.62 385.74,536.94C374.87,534.26 363.62,531.79 360.74,531.45C355.50,530.83 355.50,530.83 360.00,533.75C362.48,535.35 368.55,539.18 373.50,542.24C378.45,545.31 385.21,548.73 388.52,549.84C391.82,550.95 398.35,552.34 403.02,552.92C407.68,553.50 413.07,554.14 415.00,554.33C416.93,554.52 424.80,554.75 432.50,554.84zM409.25,531.88C409.66,531.95 410.00,531.57 410.00,531.05C410.00,530.52 408.09,528.79 405.75,527.19C403.41,525.59 397.45,521.80 392.50,518.76C387.55,515.72 380.35,511.67 376.50,509.76C372.65,507.84 367.11,505.50 364.19,504.54C361.26,503.58 358.68,502.99 358.45,503.22C358.21,503.45 359.18,505.19 360.59,507.07C362.00,508.96 364.03,512.18 365.09,514.24C366.15,516.29 368.03,518.62 369.26,519.41C370.49,520.21 378.93,523.10 388.00,525.84C397.07,528.57 405.40,531.03 406.50,531.29C407.60,531.55 408.84,531.82 409.25,531.88zM572.50,512.93C563.89,512.89 556.88,512.36 554.29,511.55C551.97,510.82 548.11,509.08 545.71,507.68C543.31,506.27 538.99,503.00 536.11,500.41C532.21,496.90 531.21,495.48 532.19,494.83C533.17,494.18 532.49,493.15 529.50,490.74C527.30,488.97 523.25,485.39 520.50,482.78C517.75,480.18 516.01,478.03 516.64,478.02C517.26,478.01 520.51,479.83 523.85,482.06C527.20,484.29 531.26,486.50 532.87,486.96C535.39,487.68 535.90,487.51 536.36,485.74C536.81,484.00 537.14,483.87 538.45,484.96C539.30,485.67 540.00,487.03 540.00,487.99C540.00,489.17 541.95,490.58 546.00,492.34C549.30,493.77 555.83,495.50 560.51,496.17C567.09,497.12 570.83,497.14 576.98,496.24C581.36,495.61 586.41,494.28 588.22,493.31C591.50,491.53 591.50,491.53 587.00,491.01C582.50,490.50 582.50,490.50 588.55,488.80C591.87,487.87 595.45,486.16 596.49,485.01C597.75,483.62 598.40,481.36 598.44,478.21C598.50,473.50 598.50,473.50 592.09,473.69C588.56,473.79 582.34,474.61 578.27,475.52C571.92,476.93 569.10,477.01 558.68,476.08C551.98,475.49 537.83,474.56 527.22,474.02C510.96,473.20 506.84,472.66 500.87,470.59C496.98,469.24 493.53,467.87 493.21,467.55C492.89,467.22 493.05,465.78 493.56,464.33C494.08,462.89 495.28,461.22 496.22,460.62C497.49,459.83 498.81,459.90 501.22,460.90C503.03,461.64 505.89,462.46 507.60,462.72C509.85,463.06 515.72,461.21 528.93,456.03C542.90,450.54 548.77,448.74 554.02,448.30C560.39,447.76 561.40,447.97 568.28,451.23C575.68,454.75 575.68,454.75 581.59,450.77C587.03,447.11 587.92,446.83 592.87,447.24C596.74,447.56 600.88,449.04 607.77,452.59C613.01,455.29 618.17,458.67 619.24,460.11C621.18,462.71 621.17,462.72 618.59,467.82C617.17,470.63 616.00,473.87 616.00,475.01C616.00,476.15 615.04,478.97 613.86,481.29C612.68,483.61 610.61,486.95 609.27,488.71C607.92,490.48 606.14,494.91 605.30,498.56C604.34,502.79 602.83,506.27 601.15,508.13C599.09,510.40 597.16,511.27 592.50,512.02C589.20,512.55 580.20,512.96 572.50,512.93zM571.94,461.77C572.79,461.61 573.63,460.66 573.83,459.66C574.02,458.67 573.35,457.18 572.34,456.37C571.33,455.56 568.70,454.02 566.50,452.97C564.30,451.91 560.45,451.03 557.94,451.02C555.44,451.01 550.68,451.92 547.37,453.03C544.05,454.15 539.80,456.37 537.92,457.96C534.50,460.85 534.50,460.85 538.66,459.94C540.94,459.44 544.54,459.11 546.66,459.21C548.77,459.30 551.40,459.03 552.50,458.60C554.09,457.97 554.19,458.03 553.00,458.89C551.73,459.81 551.80,459.99 553.50,460.12C554.60,460.20 558.53,460.35 562.23,460.45C565.94,460.55 569.29,460.96 569.69,461.35C570.08,461.75 571.09,461.94 571.94,461.77zM265.12,441.28C265.62,440.78 267.15,435.91 268.54,430.44C269.93,424.97 272.41,413.33 274.05,404.57C277.03,388.65 277.03,388.65 272.54,374.07C270.07,366.06 267.32,356.12 266.42,352.00C265.53,347.88 264.55,338.92 264.26,332.10C263.93,324.60 264.08,319.93 264.65,320.28C265.16,320.60 266.60,322.90 267.85,325.40C269.10,327.91 270.50,330.19 270.96,330.48C271.43,330.76 272.32,329.54 272.96,327.75C273.97,324.89 274.25,324.70 275.30,326.16C275.96,327.08 277.04,328.65 277.69,329.66C278.76,331.31 278.89,331.19 278.92,328.50C278.94,326.85 278.30,317.62 277.50,308.00C276.70,298.38 276.03,283.75 276.03,275.50C276.02,267.25 276.67,256.10 277.48,250.73C278.29,245.36 279.61,239.73 280.40,238.23C281.47,236.22 281.98,235.89 282.36,237.00C282.64,237.82 283.80,245.38 284.94,253.78C286.07,262.19 287.00,269.59 287.00,270.23C287.00,270.96 287.33,271.04 287.89,270.45C288.37,269.93 290.36,264.55 292.31,258.50C294.25,252.45 296.52,245.93 297.35,244.00C298.38,241.60 299.02,240.97 299.40,242.00C299.70,242.82 300.40,256.55 300.97,272.50C301.53,288.45 302.00,302.74 302.00,304.25C302.00,305.76 302.42,307.00 302.93,307.00C303.44,307.00 306.99,300.81 310.82,293.25C314.65,285.69 319.34,275.68 321.25,271.00C323.16,266.32 324.98,261.38 325.31,260.00C325.64,258.62 326.62,251.20 327.49,243.50C328.36,235.80 330.00,224.10 331.14,217.50C332.28,210.90 335.16,199.55 337.54,192.28C339.92,185.01 343.91,175.02 346.41,170.08C348.90,165.14 353.89,156.29 357.48,150.41C361.08,144.54 367.49,135.46 371.74,130.24C375.98,125.02 383.45,117.01 388.34,112.45C393.23,107.89 399.88,102.74 403.11,101.02C406.35,99.29 409.00,98.26 409.00,98.73C409.00,99.19 406.04,102.71 402.43,106.54C398.81,110.37 392.58,117.33 388.59,122.00C384.60,126.67 377.91,135.10 373.73,140.73C369.55,146.36 363.63,155.42 360.58,160.86C357.53,166.30 353.45,175.47 351.51,181.25C349.58,187.03 348.00,192.71 348.00,193.88C348.00,195.16 348.64,196.00 349.61,196.00C350.95,196.00 351.12,196.77 350.61,200.50C350.28,202.97 349.72,207.03 349.39,209.50C348.99,212.38 349.15,214.00 349.83,214.00C350.41,214.00 352.86,211.41 355.28,208.25C357.69,205.09 362.42,198.39 365.78,193.37C369.14,188.35 375.44,179.80 379.79,174.37C384.13,168.94 393.27,159.09 400.09,152.49C406.92,145.88 416.32,137.51 421.00,133.88C425.68,130.25 433.32,124.72 438.00,121.59C442.68,118.45 453.61,112.33 462.29,107.98C470.99,103.63 483.57,98.30 490.29,96.12C497.01,93.94 505.42,91.41 508.98,90.49C512.55,89.58 518.85,88.23 522.98,87.51C527.12,86.78 535.45,85.88 541.50,85.49C547.90,85.09 558.15,85.28 566.00,85.95C573.42,86.59 583.43,87.98 588.24,89.05C593.05,90.12 597.64,91.00 598.46,91.00C599.32,91.00 599.71,90.41 599.40,89.59C599.10,88.82 593.68,83.53 587.36,77.84C581.03,72.15 571.73,64.67 566.68,61.21C561.63,57.74 552.55,52.48 546.50,49.51C540.45,46.54 530.77,42.52 525.00,40.59C519.23,38.65 509.32,35.95 503.00,34.59C496.68,33.23 486.55,31.55 480.50,30.84C474.45,30.14 460.73,29.58 450.00,29.58C439.27,29.59 426.91,30.15 422.53,30.82C418.14,31.49 409.37,33.19 403.03,34.59C396.69,35.99 386.77,38.70 381.00,40.62C375.23,42.53 363.75,47.41 355.50,51.46C347.25,55.51 335.82,61.81 330.10,65.45C324.38,69.10 316.28,74.93 312.10,78.42C307.92,81.91 300.87,88.55 296.42,93.18C291.98,97.80 285.09,106.30 281.11,112.05C277.12,117.80 271.02,128.35 267.54,135.50C264.06,142.65 259.64,152.55 257.72,157.50C255.79,162.45 252.62,171.90 250.68,178.50C248.73,185.10 246.00,195.68 244.61,202.00C243.21,208.32 241.41,217.32 240.61,222.00C239.80,226.68 238.60,237.22 237.93,245.44C237.14,255.27 236.92,271.52 237.29,292.94C237.68,315.58 238.35,328.70 239.48,336.00C240.38,341.77 243.84,358.65 247.16,373.50C250.49,388.35 255.42,409.45 258.13,420.38C260.83,431.31 263.31,440.69 263.63,441.22C263.98,441.78 264.59,441.81 265.12,441.28zM539.17,419.96C536.60,419.94 533.15,419.32 531.50,418.59C529.85,417.86 527.48,416.14 526.23,414.79C524.98,413.43 523.51,410.79 522.98,408.92C522.44,407.04 522.00,404.85 522.00,404.03C522.00,403.19 523.31,404.13 524.99,406.17C526.63,408.17 529.98,410.97 532.42,412.40C534.86,413.83 537.11,415.00 537.43,415.00C537.74,415.00 538.00,414.21 538.00,413.25C538.01,412.29 538.84,410.13 539.87,408.45C541.09,406.44 543.10,404.99 545.73,404.20C547.93,403.54 550.94,403.00 552.41,403.00C553.88,403.00 556.86,403.91 559.03,405.01C561.20,406.12 563.69,408.12 564.57,409.46C565.51,410.90 565.90,412.75 565.52,413.95C565.08,415.32 564.01,416.00 562.30,416.00C560.89,416.00 557.99,415.48 555.86,414.84C552.96,413.97 551.37,413.97 549.50,414.82C548.12,415.45 547.00,416.59 547.00,417.37C547.00,418.15 546.29,419.06 545.42,419.39C544.55,419.73 541.74,419.98 539.17,419.96zM447.50,337.84C446.40,337.78 441.97,337.36 437.65,336.91C433.33,336.45 429.28,335.65 428.65,335.14C428.02,334.62 425.48,333.66 423.00,333.00C420.52,332.35 417.82,331.27 417.00,330.60C416.18,329.93 414.26,328.86 412.75,328.21C410.60,327.30 410.00,326.37 410.00,323.97C410.00,321.45 409.46,320.71 407.00,319.85C405.35,319.28 404.23,318.44 404.50,318.00C404.77,317.56 403.63,316.72 401.95,316.13C400.28,315.55 397.91,314.27 396.70,313.29C395.49,312.30 394.50,310.53 394.50,309.34C394.50,308.15 394.84,306.84 395.25,306.42C395.66,306.01 396.00,304.86 396.00,303.88C396.00,302.90 396.56,301.74 397.25,301.30C397.94,300.86 400.24,298.34 402.36,295.70C404.48,293.06 409.37,288.69 413.22,285.98C417.08,283.27 422.77,280.10 425.87,278.94C428.97,277.78 434.88,276.15 439.00,275.32C443.12,274.50 451.45,273.76 457.50,273.69C466.71,273.57 469.24,273.89 473.05,275.63C475.55,276.78 479.24,279.15 481.25,280.92C483.26,282.68 485.21,285.11 485.58,286.31C485.96,287.52 488.03,291.03 490.18,294.12C493.10,298.30 493.95,300.35 493.50,302.15C493.07,303.87 493.72,305.70 495.82,308.60C497.43,310.82 499.04,313.56 499.40,314.68C499.79,315.92 499.49,317.18 498.62,317.90C497.83,318.55 494.45,319.60 491.10,320.22C487.74,320.84 485.00,321.86 485.00,322.48C485.00,323.09 484.44,324.16 483.76,324.84C483.08,325.52 482.52,326.85 482.51,327.79C482.50,328.85 481.55,329.63 480.00,329.84C478.62,330.03 476.82,330.76 476.00,331.46C475.18,332.17 472.25,333.47 469.50,334.37C466.75,335.26 461.12,336.43 457.00,336.97C452.88,337.50 448.60,337.89 447.50,337.84zM465.10,323.55C469.50,323.31 475.10,322.81 477.55,322.44C480.00,322.07 482.00,321.29 482.00,320.69C482.00,320.09 483.14,317.96 484.54,315.94C486.67,312.87 486.90,311.88 485.99,309.89C485.39,308.57 482.62,305.81 479.82,303.75C477.03,301.69 474.13,300.00 473.37,300.00C472.48,300.00 472.00,301.19 472.00,303.43C472.00,305.45 470.44,309.87 468.21,314.18C465.28,319.83 463.97,321.45 462.46,321.26C461.38,321.13 459.47,321.26 458.21,321.54C456.95,321.83 456.19,322.49 456.51,323.02C456.85,323.57 460.54,323.80 465.10,323.55zM444.75,322.89C446.54,322.95 448.00,322.63 448.00,322.19C448.00,321.74 446.67,320.10 445.05,318.55C443.42,316.99 440.85,312.86 439.32,309.36C437.80,305.86 436.06,303.00 435.46,303.00C434.86,303.00 433.25,304.24 431.88,305.75C430.51,307.26 428.17,310.16 426.69,312.18C425.21,314.21 424.00,316.30 424.00,316.83C424.00,317.35 424.79,318.11 425.75,318.50C426.71,318.89 430.65,320.02 434.50,321.00C438.35,321.98 442.96,322.83 444.75,322.89zM630.52,320.00C632.47,320.00 635.57,319.37 637.40,318.61C639.24,317.84 641.47,316.16 642.37,314.88C643.27,313.60 644.00,311.13 644.00,309.39C644.00,306.97 643.06,305.38 640.00,302.62C637.80,300.63 635.51,299.00 634.92,299.00C634.33,299.00 633.94,300.46 634.07,302.25C634.19,304.04 634.23,306.46 634.15,307.64C634.07,308.81 632.42,312.08 630.48,314.89C626.97,320.00 626.97,320.00 630.52,320.00zM605.54,303.00C606.81,303.00 608.58,302.27 609.47,301.38C610.36,300.50 610.92,299.26 610.72,298.63C610.51,298.01 609.33,297.35 608.09,297.17C606.85,296.99 605.00,297.59 603.98,298.51C602.97,299.43 602.38,300.82 602.67,301.59C602.97,302.37 604.26,303.00 605.54,303.00zM426.75,287.92C429.36,287.49 435.77,286.39 441.00,285.46C447.80,284.25 453.63,283.92 461.50,284.29C468.49,284.61 473.90,285.40 476.35,286.45C478.82,287.52 480.07,287.70 479.82,286.96C479.61,286.32 476.79,284.16 473.56,282.15C468.03,278.72 467.12,278.48 458.09,278.17C451.77,277.95 446.18,278.37 441.69,279.42C437.94,280.29 432.48,282.14 429.54,283.52C426.61,284.91 423.71,286.65 423.10,287.37C422.20,288.46 422.86,288.56 426.75,287.92zM651.47,276.68C652.03,276.49 653.30,274.94 654.30,273.23C655.98,270.35 656.00,269.89 654.53,267.06C653.66,265.37 651.27,262.90 649.22,261.58C647.17,260.25 643.62,258.61 641.32,257.94C637.79,256.91 636.33,256.99 631.90,258.44C629.02,259.38 622.27,262.35 616.91,265.05C611.54,267.74 606.84,270.45 606.45,271.08C605.94,271.91 607.10,272.04 610.72,271.54C613.45,271.16 620.15,271.43 625.59,272.13C631.04,272.82 637.75,273.42 640.50,273.45C643.58,273.49 646.45,274.18 647.98,275.26C649.35,276.22 650.92,276.86 651.47,276.68zM616.43,178.99C616.94,178.99 615.43,177.31 613.06,175.25C610.70,173.19 606.04,169.81 602.70,167.75C599.37,165.69 596.04,164.00 595.32,164.00C594.59,164.00 594.00,164.43 594.00,164.95C594.00,165.47 595.46,167.01 597.25,168.36C599.04,169.72 603.88,172.66 608.00,174.90C612.12,177.14 615.92,178.98 616.43,178.99zM614.47,164.90C615.01,164.95 612.54,162.07 609.00,158.50C605.46,154.93 602.85,152.00 603.21,152.00C603.57,152.00 605.02,152.44 606.43,152.98C607.97,153.56 609.00,153.58 609.00,153.03C609.00,152.52 606.05,150.00 602.45,147.43C598.85,144.86 595.63,143.04 595.29,143.37C594.96,143.71 595.50,144.89 596.50,146.00C597.50,147.11 598.03,148.30 597.68,148.65C597.32,149.01 594.24,148.34 590.82,147.18C587.41,146.01 584.39,145.27 584.12,145.54C583.86,145.81 585.18,147.64 587.07,149.60C588.96,151.56 593.30,155.02 596.72,157.28C600.15,159.54 605.32,162.16 608.22,163.09C611.13,164.03 613.94,164.84 614.47,164.90z" />

</svg>